<svg xmlns="http://www.w3.org/2000/svg" xmlns:xlink="http://www.w3.org/1999/xlink" viewBox="0 0 38.35 36.11"><defs><style>.cls-1{fill:url(#Degradado_sin_nombre_67);}</style><linearGradient id="Degradado_sin_nombre_67" x1="-221.55" y1="175.46" x2="-183.13" y2="175.46" gradientTransform="translate(281.2 73.46) rotate(52.87)" gradientUnits="userSpaceOnUse"><stop offset="0" stop-color="#009245"/><stop offset="0.5" stop-color="#8cc63f"/><stop offset="0.57" stop-color="#83c33f"/><stop offset="0.67" stop-color="#6bba40"/><stop offset="0.81" stop-color="#45ac42"/><stop offset="0.96" stop-color="#0f9844"/><stop offset="1" stop-color="#009245"/></linearGradient></defs><g id="Layer_2" data-name="Layer 2"><g id="OBJECTS"><path class="cls-1" d="M31.42,32.89,30,31l2.15,0,0-1.81-3.48.06-1.19-1.58,4.72-.08,0-1.81-6.05.1L24.66,24l8.2-.13L27.32,18l2.4-.3,4,4.22L35,20.63,32,17.37l1.86-.23,2.34,2.48,1.32-1.24L36,16.86l2.32-.29-.22-1.8-2.36.3,1-1.88-1.58-.88-1.69,3-2,.25,2.29-4.13-1.58-.88-2.94,5.29-2.27.28L31,9.09,23.15,11,24,8.84l5.89-1.39-.42-1.76L24.92,6.78,25.68,5l3.39-.8-.42-1.77-2.09.5L27.48.7,25.81,0,24.9,2.16,23.82.36l-1.55.93L24,4.22,23.3,6,21,2.11,19.45,3l3,5-.94,2.23L17.33,3.32,15,11.18,13.56,9.29,15.29,3.5,13.56,3,12.2,7.51,11,5.93,12,2.6l-1.74-.52L9.65,4.14,8.22,2.25,6.78,3.34,8.19,5.21l-2.09,0,0,1.81L9.55,7l1.13,1.49L6.2,8.56l0,1.81,5.8-.09,1.42,1.87-8,.13L11,18.16l-2.41.3-4-4.22L3.33,15.48l3.08,3.26L4.55,19,2.2,16.48.88,17.73l1.44,1.52L0,19.54l.22,1.8L2.58,21l-1,1.88,1.59.88,1.69-3,2-.24-2.3,4.13,1.58.88L9,20.24,11.26,20,7.33,27l7.87-1.86-.89,2.1-5.89,1.4.42,1.76,4.6-1.09-.77,1.82L9.29,32l.42,1.76,2.09-.49-.92,2.19,1.66.7L13.45,34l1.08,1.8,1.55-.93-1.76-2.93.73-1.73L17.35,34l1.56-.93-3-5,.94-2.23L21,32.79l2.28-7.62L24.72,27,23.06,32.6l1.73.52,1.29-4.29,1.13,1.49-1,3.28,1.73.52.6-2L30,34ZM28.73,22.08l-5.43.09-2.57-3.4,4.36-.54ZM27.44,11.8l-2.57,4.63L20.62,17,22.28,13Zm-9.55-4,2.73,4.55-1.71,4L16.33,13ZM9.63,14l5.17-.09,2.59,3.43-4.13.51Zm1.28,10.28,2.58-4.63,4.24-.53-1.66,3.94Zm9.55,4-2.72-4.55L19.36,20,22,23.38Z"/></g></g></svg>