<svg xmlns="http://www.w3.org/2000/svg" xmlns:xlink="http://www.w3.org/1999/xlink" viewBox="0 0 38.03 38.03"><defs><style>.cls-1{fill:url(#Degradado_sin_nombre_71);}</style><linearGradient id="Degradado_sin_nombre_71" y1="19.02" x2="38.03" y2="19.02" gradientUnits="userSpaceOnUse"><stop offset="0" stop-color="#a00008"/><stop offset="0.5" stop-color="#d50002"/><stop offset="0.63" stop-color="#cc0003"/><stop offset="0.85" stop-color="#b50006"/><stop offset="1" stop-color="#a00008"/></linearGradient></defs><g id="Layer_2" data-name="Layer 2"><g id="OBJECTS"><polygon class="cls-1" points="7.46 7.86 9.72 13.2 16.86 16.62 14.23 9.16 9.16 6.33 10.36 4.18 12.99 5.64 11.29 0.82 13.61 0 15.32 4.82 16.44 2.04 18.73 2.96 16.55 8.34 19.19 15.8 22.6 8.66 21.02 3.08 23.39 2.41 24.21 5.3 26.42 0.69 28.64 1.75 26.43 6.36 29.2 5.19 30.17 7.46 24.83 9.72 21.41 16.86 28.87 14.23 31.7 9.16 33.85 10.36 32.39 12.99 37.21 11.29 38.03 13.61 33.21 15.31 36 16.44 35.07 18.73 29.7 16.55 22.23 19.19 29.37 22.6 34.95 21.02 35.63 23.39 32.73 24.21 37.35 26.42 36.28 28.64 31.67 26.43 32.84 29.2 30.57 30.17 28.31 24.83 21.17 21.41 23.8 28.87 28.87 31.7 27.67 33.85 25.04 32.39 26.74 37.21 24.42 38.03 22.72 33.21 21.59 35.99 19.3 35.07 21.48 29.69 18.84 22.23 15.43 29.37 17.02 34.95 14.64 35.63 13.82 32.73 11.61 37.34 9.39 36.28 11.6 31.67 8.83 32.84 7.87 30.57 13.21 28.31 16.62 21.17 9.16 23.8 6.34 28.87 4.18 27.67 5.64 25.04 0.82 26.74 0 24.42 4.82 22.71 2.04 21.59 2.96 19.3 8.34 21.48 15.8 18.84 8.66 15.43 3.08 17.02 2.41 14.64 5.3 13.82 0.69 11.61 1.75 9.39 6.36 11.6 5.19 8.83 7.46 7.86"/></g></g></svg>