<?xml version="1.0" encoding="utf-8"?>
<!-- Generator: Adobe Illustrator 27.5.0, SVG Export Plug-In . SVG Version: 6.00 Build 0)  -->
<svg version="1.1" id="Layer_1" xmlns="http://www.w3.org/2000/svg" xmlns:xlink="http://www.w3.org/1999/xlink" x="0px" y="0px"
	 viewBox="0 0 612 792" style="enable-background:new 0 0 612 792;" xml:space="preserve">
<style type="text/css">
	.st0{fill:none;stroke:#000002;stroke-width:1.0001;stroke-miterlimit:2.6131;}
	
		.st1{fill-rule:evenodd;clip-rule:evenodd;fill:none;stroke:#000002;stroke-width:2.0001;stroke-linecap:round;stroke-linejoin:round;stroke-miterlimit:2.6131;stroke-dasharray:2.0001,4.0003;}
	.st2{fill-rule:evenodd;clip-rule:evenodd;fill:none;stroke:#000002;stroke-width:4.0635;stroke-miterlimit:2.6131;}
	.st3{fill-rule:evenodd;clip-rule:evenodd;fill:none;stroke:#000002;stroke-width:0.75;stroke-miterlimit:2.6131;}
	.st4{fill:#000002;}
	.st5{font-family:'ArialMT';}
	.st6{font-size:11.0577px;}
	.st7{font-family:'Montserrat-Bold';}
	.st8{font-size:21.2913px;}
	.st9{font-family:'Montserrat-Regular';}
	.st10{font-size:12.7877px;}
	.st11{letter-spacing:2;}
	.st12{font-family:'Montserrat-Medium';}
</style>
<path class="st0" d="M306.08,300.65v3.44 M301.56,300.74l0.15,3.43 M295.33,301.18l0.35,3.42 M289.14,301.97l0.54,3.39
	 M283.01,303.17l0.74,3.36 M276.96,304.69l0.94,3.31 M271,306.56l1.13,3.25 M265.17,308.78l1.31,3.18 M259.47,311.33l1.5,3.09
	 M253.94,314.21l1.67,3 M248.58,317.41l1.85,2.9 M243.41,320.92l2.01,2.79 M238.46,324.72l2.17,2.66 M233.74,328.8l2.32,2.53
	 M229.26,333.15l2.47,2.39 M225.05,337.76l2.6,2.25 M221.11,342.6l2.73,2.09 M217.46,347.66l2.85,1.93 M214.13,352.92l2.95,1.76
	 M211.01,358.24l3.05,1.58 M208.38,364l3.14,1.4 M206,369.77l3.21,1.22 M203.96,375.67l3.28,1.03 M202.27,381.68l3.33,0.83
	 M200.93,387.77l3.38,0.64 M199.95,393.93l3.41,0.44 M199.33,400.15l3.43,0.24 M199.07,406.38l3.44,0.04 M199.18,412.62l3.43-0.16
	 M199.65,418.84l3.42-0.36 M200.48,425.03l3.39-0.56 M201.67,431.16l3.35-0.75 M202.82,436.9l3.3-0.95 M205.11,443.15l3.24-1.14
	 M207.35,448.97l3.17-1.33 M209.93,454.66l3.09-1.51 M212.85,460.16l2.99-1.69 M216.07,465.51l2.89-1.86 M219.59,470.65l2.78-2.02
	 M222.9,475.35l2.65-2.18 M226.99,480.06l2.52-2.33 M231.88,484.75l2.38-2.48 M236.5,488.94l2.23-2.61 M241.36,492.86l2.08-2.74
	 M246.43,496.52l1.92-2.85 M251.71,499.85l1.75-2.96 M257.17,502.86l1.57-3.06 M262.8,505.55l1.39-3.14 M268.58,507.91l1.2-3.22
	 M274.49,509.92l1.01-3.28 M280.5,511.59l0.82-3.34 M286.61,512.9l0.63-3.38 M292.77,513.86l0.43-3.41 M298.99,514.46l0.23-3.43
	 M305.22,514.69l0.03-3.44 M311.46,514.56l-0.17-3.43 M317.68,514.06l-0.37-3.42 M323.87,513.2l-0.57-3.39 M329.37,512.06
	l-0.77-3.35 M335.42,510.5l-0.96-3.3 M341.36,508.6l-1.15-3.24 M347.19,506.35l-1.34-3.16 M352.86,503.74l-1.52-3.08 M358.38,500.83
	l-1.7-2.99 M363.72,497.61l-1.87-2.88 M368.87,494.07l-2.03-2.77 M373.81,490.28l-2.19-2.65 M378.51,486.17l-2.34-2.51
	 M382.96,481.8l-2.49-2.37 M387.66,476.94l-2.62-2.22 M391.31,472.19l-2.74-2.07 M394.93,467.1l-2.86-1.9 M398.23,461.79l-2.97-1.73
	 M401.23,456.31l-3.06-1.56 M403.9,450.67l-3.15-1.38 M406.24,444.89l-3.22-1.19 M408.24,438.98l-3.29-1 M409.89,432.96l-3.34-0.81
	 M411.19,426.86l-3.38-0.61 M412.13,420.69l-3.41-0.41 M412.71,414.48l-3.43-0.21 M412.93,408.24l-3.44-0.01 M412.78,402l-3.43,0.19
	 M412.27,395.78l-3.41,0.39 M411.4,389.6l-3.39,0.59 M410.17,383.48l-3.35,0.78 M408.58,377.45l-3.29,0.98 M406.64,371.52
	l-3.23,1.17 M404.37,365.71l-3.16,1.35 M401.75,360.04l-3.07,1.53 M398.82,354.54l-2.98,1.71 M395.55,349.2l-2.87,1.88
	 M392.05,343.95l-2.76,2.05 M388.19,339.05l-2.64,2.2 M383.96,334.61l-2.5,2.35 M379.57,330.17l-2.36,2.49 M374.93,326l-2.21,2.63
	 M370.05,322.11l-2.06,2.75 M364.95,318.51l-1.89,2.87 M359.67,315.21l-1.72,2.97 M354.19,312.23l-1.55,3.07 M348.54,309.57
	l-1.36,3.15 M342.75,307.24l-1.18,3.23 M336.84,305.26l-0.99,3.29 M330.81,303.62l-0.79,3.34 M324.71,302.34l-0.6,3.38
	 M318.54,301.41l-0.4,3.41 M312.32,300.85l-0.2,3.43"/>
<ellipse transform="matrix(0.7071 -0.7071 0.7071 0.7071 -198.6409 335.7784)" class="st1" cx="306" cy="407.67" rx="112.45" ry="112.45"/>
<ellipse transform="matrix(0.7071 -0.7071 0.7071 0.7071 -198.6407 335.7784)" class="st2" cx="306" cy="407.67" rx="120.23" ry="120.23"/>
<ellipse transform="matrix(0.9725 -0.233 0.233 0.9725 -86.5777 82.5339)" class="st3" cx="306" cy="407.67" rx="98.93" ry="98.93"/>
<text transform="matrix(1 0 0 1 388.7949 310.2036)" class="st4 st5 st6">®</text>
<g>
	<text transform="matrix(1 0 0 1 284.5522 394.4487)"><tspan x="0" y="0" class="st4 st7 st8">T</tspan><tspan x="12.21" y="0" class="st4 st7 st8">H</tspan><tspan x="28.46" y="0" class="st4 st7 st8">E</tspan><tspan x="-67.23" y="20.27" class="st4 st7 st8">C</tspan><tspan x="-52.57" y="20.27" class="st4 st7 st8">ONSERVATOR</tspan><tspan x="95.58" y="20.27" class="st4 st7 st8">Y</tspan></text>
	<text transform="matrix(1 0 0 1 251.1294 436.6924)"><tspan x="0" y="0" class="st4 st9 st10 st11">A</tspan><tspan x="11.23" y="0" class="st4 st9 st10">T</tspan><tspan x="18.57" y="0" class="st4 st9 st10 st11"> </tspan><tspan x="23.99" y="0" class="st4 st12 st10 st11">IR</tspan><tspan x="41.49" y="0" class="st4 st12 st10">O</tspan><tspan x="52.23" y="0" class="st4 st12 st10 st11"> LAGO</tspan><tspan x="103.83" y="0" class="st4 st12 st10">S</tspan></text>
</g>
</svg>
