<?xml version="1.0" encoding="utf-8"?>
<!-- Generator: Adobe Illustrator 27.5.0, SVG Export Plug-In . SVG Version: 6.00 Build 0)  -->
<svg version="1.1" id="Layer_1" xmlns="http://www.w3.org/2000/svg" xmlns:xlink="http://www.w3.org/1999/xlink" x="0px" y="0px"
	 viewBox="0 0 244.5 244.5" style="enable-background:new 0 0 244.5 244.5;" xml:space="preserve">
<style type="text/css">
	.st0{fill:#000002;stroke:#D9BA83;stroke-width:1.0001;stroke-miterlimit:2.6131;}
	.st1{fill:none;stroke:#D9BA83;stroke-width:2;stroke-linecap:round;stroke-miterlimit:10;stroke-dasharray:3,5;}
	.st2{fill:none;stroke:#D9BA83;stroke-width:4;stroke-miterlimit:10;}
	.st3{fill:none;stroke:#D9BA83;stroke-width:0.75;stroke-miterlimit:2.6132;}
	.st4{enable-background:new    ;}
	.st5{fill:#D9BA83;}
</style>
<g>
	<path class="st0" d="M122.3,15.2v3.4 M117.8,15.3l0.1,3.4 M111.6,15.7l0.4,3.4 M105.4,16.5l0.5,3.4 M99.2,17.7l0.7,3.4 M93.2,19.2
		l0.9,3.3 M87.2,21.1l1.1,3.2 M81.4,23.3l1.3,3.2 M75.7,25.9l1.5,3.1 M70.2,28.8l1.7,3 M64.8,32l1.9,2.9 M59.6,35.5l2,2.8
		 M54.7,39.3l2.2,2.7 M50,43.4l2.3,2.5 M45.5,47.7l2.5,2.4 M41.3,52.3l2.6,2.2 M37.3,57.2l2.7,2.1 M33.7,62.2l2.9,1.9 M30.4,67.5
		l2.9,1.8 M27.2,72.8l3.1,1.6 M24.6,78.6l3.1,1.4 M22.2,84.3l3.2,1.2 M20.2,90.2l3.3,1 M18.5,96.2l3.3,0.8 M17.2,102.3l3.4,0.6
		 M16.2,108.5l3.4,0.4 M15.6,114.7l3.4,0.2 M15.3,120.9l3.4,0 M15.4,127.2l3.4-0.2 M15.9,133.4l3.4-0.4 M16.7,139.6l3.4-0.6
		 M17.9,145.7l3.4-0.8 M19.1,151.5l3.3-1 M21.3,157.7l3.2-1.1 M23.6,163.5l3.2-1.3 M26.2,169.2l3.1-1.5 M29.1,174.7l3-1.7
		 M32.3,180.1l2.9-1.9 M35.8,185.2l2.8-2 M39.1,189.9l2.6-2.2 M43.2,194.6l2.5-2.3 M48.1,199.3l2.4-2.5 M52.7,203.5l2.2-2.6
		 M57.6,207.4l2.1-2.7 M62.7,211.1l1.9-2.9 M67.9,214.4l1.8-3 M73.4,217.4l1.6-3.1 M79,220.1l1.4-3.1 M84.8,222.5l1.2-3.2
		 M90.7,224.5l1-3.3 M96.7,226.1l0.8-3.3 M102.8,227.5l0.6-3.4 M109,228.4l0.4-3.4 M115.2,229l0.2-3.4 M121.5,229.2l0-3.4
		 M127.7,229.1l-0.2-3.4 M133.9,228.6l-0.4-3.4 M140.1,227.8l-0.6-3.4 M145.6,226.6l-0.8-3.4 M151.7,225.1l-1-3.3 M157.6,223.2
		l-1.1-3.2 M163.4,220.9l-1.3-3.2 M169.1,218.3l-1.5-3.1 M174.6,215.4l-1.7-3 M180,212.2l-1.9-2.9 M185.1,208.6l-2-2.8 M190,204.8
		l-2.2-2.6 M194.7,200.7l-2.3-2.5 M199.2,196.4l-2.5-2.4 M203.9,191.5l-2.6-2.2 M207.5,186.7l-2.7-2.1 M211.2,181.7l-2.9-1.9
		 M214.5,176.3l-3-1.7 M217.5,170.9l-3.1-1.6 M220.1,165.2l-3.1-1.4 M222.5,159.4l-3.2-1.2 M224.5,153.5l-3.3-1 M226.1,147.5
		l-3.3-0.8 M227.4,141.4l-3.4-0.6 M228.4,135.2l-3.4-0.4 M228.9,129l-3.4-0.2 M229.2,122.8l-3.4,0 M229,116.6l-3.4,0.2 M228.5,110.3
		l-3.4,0.4 M227.6,104.2l-3.4,0.6 M226.4,98l-3.4,0.8 M224.8,92l-3.3,1 M222.9,86.1l-3.2,1.2 M220.6,80.3l-3.2,1.4 M218,74.6
		l-3.1,1.5 M215.1,69.1l-3,1.7 M211.8,63.8l-2.9,1.9 M208.3,58.5l-2.8,2 M204.4,53.6l-2.6,2.2 M200.2,49.2l-2.5,2.4 M195.8,44.7
		l-2.4,2.5 M191.2,40.6l-2.2,2.6 M186.3,36.7l-2.1,2.8 M181.2,33.1l-1.9,2.9 M175.9,29.8l-1.7,3 M170.4,26.8l-1.5,3.1 M164.8,24.1
		l-1.4,3.1 M159,21.8l-1.2,3.2 M153.1,19.8l-1,3.3 M147,18.2l-0.8,3.3 M140.9,16.9l-0.6,3.4 M134.8,16l-0.4,3.4 M128.6,15.4
		l-0.2,3.4"/>
	
		<ellipse transform="matrix(0.7071 -0.7071 0.7071 0.7071 -50.6289 122.2287)" class="st1" cx="122.2" cy="122.2" rx="112.4" ry="112.4"/>
	<ellipse class="st2" cx="122.2" cy="122.2" rx="120.2" ry="120.2"/>
	<ellipse class="st3" cx="122.2" cy="122.3" rx="98.9" ry="98.9"/>
	<g class="st4">
		<path class="st5" d="M209.1,16.7c0.7,0,1.4,0.2,2,0.5c0.7,0.4,1.2,0.9,1.5,1.5s0.5,1.3,0.5,2c0,0.7-0.2,1.4-0.5,2
			c-0.4,0.6-0.9,1.2-1.5,1.5c-0.6,0.4-1.3,0.5-2,0.5c-0.7,0-1.4-0.2-2-0.5c-0.6-0.4-1.1-0.9-1.5-1.5c-0.4-0.6-0.5-1.3-0.5-2
			c0-0.7,0.2-1.4,0.5-2c0.4-0.7,0.9-1.2,1.5-1.5C207.8,16.9,208.4,16.7,209.1,16.7z M209.1,17.4c-0.6,0-1.1,0.1-1.7,0.4
			c-0.5,0.3-1,0.7-1.3,1.3c-0.3,0.5-0.5,1.1-0.5,1.7c0,0.6,0.2,1.1,0.5,1.7s0.7,1,1.3,1.3s1.1,0.5,1.7,0.5c0.6,0,1.1-0.1,1.7-0.5
			s1-0.7,1.3-1.3s0.4-1.1,0.4-1.7c0-0.6-0.2-1.2-0.5-1.7c-0.3-0.5-0.7-1-1.3-1.3C210.2,17.5,209.7,17.4,209.1,17.4z M207.3,23v-4.4
			h1.5c0.5,0,0.9,0,1.1,0.1c0.2,0.1,0.4,0.2,0.6,0.4c0.1,0.2,0.2,0.4,0.2,0.6c0,0.3-0.1,0.6-0.3,0.8c-0.2,0.2-0.5,0.4-0.9,0.4
			c0.2,0.1,0.3,0.1,0.4,0.2c0.2,0.2,0.4,0.5,0.6,0.9L211,23h-0.9l-0.4-0.7c-0.3-0.5-0.6-0.9-0.7-1c-0.1-0.1-0.3-0.2-0.6-0.2H208V23
			H207.3z M208,20.6h0.9c0.4,0,0.7-0.1,0.8-0.2c0.1-0.1,0.2-0.3,0.2-0.5c0-0.1,0-0.2-0.1-0.3c-0.1-0.1-0.2-0.2-0.3-0.2
			c-0.1,0-0.4-0.1-0.7-0.1H208V20.6z"/>
	</g>
	<g>
		<g class="st4">
			<path class="st5" d="M105.6,109V96.9h-4.8v-2.8h13v2.8h-4.8V109H105.6z"/>
		</g>
		<g class="st4">
			<path class="st5" d="M118.2,109h-3.4V94.1h3.4V109z M125.2,102.9H118V100h7.3V102.9z M125,94.1h3.4V109H125V94.1z"/>
		</g>
		<g class="st4">
			<path class="st5" d="M134.4,106.2h8.1v2.8H131V94.1h11.3v2.8h-7.8V106.2z M134.2,100.1h7.2v2.7h-7.2V100.1z"/>
		</g>
		<g class="st4">
			<path class="st5" d="M37.4,129.5c-1.1,0-2.2-0.2-3.2-0.6c-1-0.4-1.8-0.9-2.6-1.6c-0.7-0.7-1.3-1.5-1.7-2.4
				c-0.4-0.9-0.6-2-0.6-3.1c0-1.1,0.2-2.2,0.6-3.1c0.4-0.9,1-1.8,1.7-2.4c0.7-0.7,1.6-1.2,2.6-1.6s2.1-0.6,3.2-0.6
				c1.3,0,2.5,0.2,3.5,0.7c1,0.4,1.9,1.1,2.6,2l-2.2,2c-0.5-0.6-1.1-1-1.7-1.3c-0.6-0.3-1.3-0.4-2-0.4c-0.7,0-1.3,0.1-1.9,0.3
				c-0.6,0.2-1.1,0.6-1.5,1s-0.8,0.9-1,1.5c-0.2,0.6-0.4,1.2-0.4,1.9c0,0.7,0.1,1.4,0.4,1.9c0.2,0.6,0.6,1.1,1,1.5s0.9,0.8,1.5,1
				c0.6,0.2,1.2,0.3,1.9,0.3c0.7,0,1.4-0.1,2-0.4s1.2-0.7,1.7-1.3l2.2,2c-0.7,0.9-1.6,1.5-2.6,2C39.9,129.3,38.7,129.5,37.4,129.5z"
				/>
			<path class="st5" d="M52.8,129.5c-1.2,0-2.3-0.2-3.3-0.6c-1-0.4-1.9-0.9-2.6-1.6c-0.7-0.7-1.3-1.5-1.7-2.4
				c-0.4-0.9-0.6-2-0.6-3.1s0.2-2.1,0.6-3.1c0.4-0.9,1-1.8,1.7-2.4c0.7-0.7,1.6-1.2,2.6-1.6c1-0.4,2.1-0.6,3.2-0.6
				c1.2,0,2.3,0.2,3.2,0.6c1,0.4,1.8,0.9,2.6,1.6c0.7,0.7,1.3,1.5,1.7,2.4s0.6,2,0.6,3.1c0,1.1-0.2,2.1-0.6,3.1
				c-0.4,0.9-1,1.8-1.7,2.4c-0.7,0.7-1.6,1.2-2.6,1.6C55,129.3,53.9,129.5,52.8,129.5z M52.8,126.6c0.7,0,1.3-0.1,1.8-0.3
				c0.6-0.2,1.1-0.6,1.5-1c0.4-0.4,0.8-0.9,1-1.5s0.4-1.2,0.4-1.9c0-0.7-0.1-1.4-0.4-1.9s-0.6-1.1-1-1.5c-0.4-0.4-0.9-0.8-1.5-1
				c-0.6-0.2-1.2-0.3-1.9-0.3c-0.7,0-1.3,0.1-1.8,0.3c-0.6,0.2-1.1,0.6-1.5,1s-0.8,0.9-1,1.5c-0.2,0.6-0.4,1.2-0.4,1.9
				c0,0.7,0.1,1.3,0.4,1.9c0.2,0.6,0.6,1.1,1,1.5c0.4,0.4,0.9,0.8,1.5,1C51.5,126.5,52.1,126.6,52.8,126.6z"/>
			<path class="st5" d="M63.5,129.3v-14.9h2.9l8.8,10.7h-1.4v-10.7h3.4v14.9h-2.8l-8.8-10.7h1.4v10.7H63.5z"/>
			<path class="st5" d="M85.6,129.5c-1.2,0-2.3-0.2-3.4-0.5c-1.1-0.3-2-0.7-2.6-1.2l1.2-2.6c0.6,0.5,1.4,0.8,2.3,1.1
				c0.9,0.3,1.8,0.4,2.7,0.4c0.7,0,1.2-0.1,1.6-0.2c0.4-0.1,0.7-0.3,0.9-0.6c0.2-0.2,0.3-0.5,0.3-0.8c0-0.4-0.2-0.7-0.5-0.9
				c-0.3-0.2-0.7-0.4-1.2-0.6c-0.5-0.1-1.1-0.3-1.7-0.4c-0.6-0.1-1.2-0.3-1.9-0.5c-0.6-0.2-1.2-0.5-1.7-0.8
				c-0.5-0.3-0.9-0.7-1.2-1.2c-0.3-0.5-0.5-1.2-0.5-2c0-0.9,0.2-1.6,0.7-2.3c0.5-0.7,1.2-1.3,2.1-1.7c0.9-0.4,2.1-0.6,3.5-0.6
				c0.9,0,1.9,0.1,2.8,0.3s1.7,0.5,2.4,1l-1.1,2.6c-0.7-0.4-1.4-0.7-2.1-0.9c-0.7-0.2-1.4-0.3-2-0.3c-0.7,0-1.2,0.1-1.6,0.2
				c-0.4,0.2-0.7,0.4-0.9,0.6c-0.2,0.2-0.3,0.5-0.3,0.9c0,0.4,0.2,0.7,0.5,0.9c0.3,0.2,0.7,0.4,1.2,0.6c0.5,0.1,1.1,0.3,1.7,0.4
				c0.6,0.1,1.2,0.3,1.9,0.5c0.6,0.2,1.2,0.4,1.7,0.7c0.5,0.3,0.9,0.7,1.2,1.2c0.3,0.5,0.5,1.2,0.5,1.9c0,0.8-0.2,1.6-0.7,2.3
				s-1.2,1.3-2.1,1.7C88.2,129.3,87,129.5,85.6,129.5z"/>
			<path class="st5" d="M97.7,126.5h8.1v2.8H94.3v-14.9h11.3v2.8h-7.8V126.5z M97.5,120.4h7.2v2.7h-7.2V120.4z"/>
			<path class="st5" d="M108.6,129.3v-14.9h6.5c1.3,0,2.5,0.2,3.4,0.6c1,0.4,1.7,1.1,2.2,1.9c0.5,0.8,0.8,1.8,0.8,2.9
				c0,1.1-0.3,2.1-0.8,2.9c-0.5,0.8-1.3,1.4-2.2,1.8c-1,0.4-2.1,0.6-3.4,0.6h-4.5l1.5-1.5v5.7H108.6z M112,124l-1.5-1.6h4.3
				c1.1,0,1.9-0.2,2.4-0.7c0.5-0.5,0.8-1.1,0.8-1.9c0-0.8-0.3-1.5-0.8-1.9c-0.5-0.5-1.3-0.7-2.4-0.7h-4.3l1.5-1.6V124z M118.1,129.3
				l-3.7-5.4h3.7l3.8,5.4H118.1z"/>
			<path class="st5" d="M128.7,129.3l-6.4-14.9h3.7l5.6,13.2h-2.2l5.7-13.2h3.4l-6.5,14.9H128.7z"/>
			<path class="st5" d="M137.4,129.3l6.6-14.9h3.4l6.7,14.9h-3.6l-5.5-13.2h1.4l-5.5,13.2H137.4z M140.7,126.1l0.9-2.6h7.7l0.9,2.6
				H140.7z"/>
			<path class="st5" d="M158,129.3v-12.1h-4.8v-2.8h13v2.8h-4.8v12.1H158z"/>
			<path class="st5" d="M175.1,129.5c-1.2,0-2.3-0.2-3.3-0.6s-1.9-0.9-2.6-1.6c-0.7-0.7-1.3-1.5-1.7-2.4c-0.4-0.9-0.6-2-0.6-3.1
				s0.2-2.1,0.6-3.1c0.4-0.9,1-1.8,1.7-2.4c0.7-0.7,1.6-1.2,2.6-1.6c1-0.4,2.1-0.6,3.2-0.6c1.2,0,2.3,0.2,3.2,0.6
				c1,0.4,1.8,0.9,2.6,1.6c0.7,0.7,1.3,1.5,1.7,2.4c0.4,0.9,0.6,2,0.6,3.1c0,1.1-0.2,2.1-0.6,3.1c-0.4,0.9-1,1.8-1.7,2.4
				c-0.7,0.7-1.6,1.2-2.6,1.6C177.3,129.3,176.2,129.5,175.1,129.5z M175,126.6c0.7,0,1.3-0.1,1.8-0.3c0.6-0.2,1.1-0.6,1.5-1
				s0.8-0.9,1-1.5s0.4-1.2,0.4-1.9c0-0.7-0.1-1.4-0.4-1.9s-0.6-1.1-1-1.5c-0.4-0.4-0.9-0.8-1.5-1c-0.6-0.2-1.2-0.3-1.9-0.3
				c-0.7,0-1.3,0.1-1.8,0.3c-0.6,0.2-1.1,0.6-1.5,1s-0.8,0.9-1,1.5s-0.4,1.2-0.4,1.9c0,0.7,0.1,1.3,0.4,1.9c0.2,0.6,0.6,1.1,1,1.5
				c0.4,0.4,0.9,0.8,1.5,1C173.8,126.5,174.4,126.6,175,126.6z"/>
			<path class="st5" d="M185.8,129.3v-14.9h6.5c1.3,0,2.5,0.2,3.4,0.6c1,0.4,1.7,1.1,2.2,1.9c0.5,0.8,0.8,1.8,0.8,2.9
				c0,1.1-0.3,2.1-0.8,2.9s-1.3,1.4-2.2,1.8c-1,0.4-2.1,0.6-3.4,0.6h-4.5l1.5-1.5v5.7H185.8z M189.2,124l-1.5-1.6h4.3
				c1.1,0,1.9-0.2,2.4-0.7c0.5-0.5,0.8-1.1,0.8-1.9c0-0.8-0.3-1.5-0.8-1.9c-0.5-0.5-1.3-0.7-2.4-0.7h-4.3l1.5-1.6V124z M195.3,129.3
				l-3.7-5.4h3.7l3.8,5.4H195.3z"/>
			<path class="st5" d="M204.9,129.3v-6.1l0.8,2.1l-6.6-10.9h3.7l5,8.4h-2.1l5-8.4h3.4l-6.6,10.9l0.8-2.1v6.1H204.9z"/>
		</g>
		<g class="st4">
			<path class="st5" d="M67.4,151.3l4.1-9h0.9l4.1,9h-1l-3.8-8.4h0.4l-3.8,8.4H67.4z M69,148.9l0.3-0.8h5.2l0.3,0.8H69z"/>
		</g>
		<g class="st4">
			<path class="st5" d="M81.8,151.3v-8.1h-3.1v-0.8h7.2v0.8h-3.1v8.1H81.8z"/>
		</g>
		<g class="st4">
			<path class="st5" d="M92.7,151.3v-9H94v9H92.7z"/>
			<path class="st5" d="M98.7,151.3v-9h3.5c0.8,0,1.5,0.1,2,0.4c0.6,0.2,1,0.6,1.3,1.1c0.3,0.5,0.4,1,0.4,1.7s-0.1,1.2-0.4,1.7
				c-0.3,0.5-0.7,0.8-1.3,1.1c-0.6,0.2-1.2,0.4-2,0.4h-2.8l0.6-0.6v3.3H98.7z M99.9,148.1l-0.6-0.6h2.8c0.8,0,1.4-0.2,1.9-0.5
				c0.4-0.4,0.6-0.8,0.6-1.5s-0.2-1.1-0.6-1.5s-1-0.5-1.9-0.5h-2.8l0.6-0.6V148.1z M104.6,151.3l-2.3-3.2h1.4l2.3,3.2H104.6z"/>
		</g>
		<g class="st4">
			<path class="st5" d="M114.2,151.4c-0.7,0-1.3-0.1-1.9-0.3c-0.6-0.2-1.1-0.6-1.5-1c-0.4-0.4-0.8-0.9-1-1.5
				c-0.2-0.6-0.4-1.2-0.4-1.8s0.1-1.3,0.4-1.8c0.2-0.6,0.6-1,1-1.5c0.4-0.4,0.9-0.7,1.5-1c0.6-0.2,1.2-0.3,1.9-0.3
				c0.7,0,1.3,0.1,1.9,0.3c0.6,0.2,1.1,0.5,1.5,1c0.4,0.4,0.8,0.9,1,1.5c0.2,0.6,0.4,1.2,0.4,1.8s-0.1,1.3-0.4,1.8
				c-0.2,0.6-0.6,1-1,1.5c-0.4,0.4-0.9,0.7-1.5,1C115.5,151.2,114.9,151.4,114.2,151.4z M114.2,150.2c0.5,0,1-0.1,1.4-0.3
				c0.4-0.2,0.8-0.4,1.1-0.7c0.3-0.3,0.6-0.7,0.7-1.1s0.3-0.9,0.3-1.4s-0.1-1-0.3-1.4s-0.4-0.8-0.7-1.1c-0.3-0.3-0.7-0.6-1.1-0.7
				c-0.4-0.2-0.9-0.3-1.4-0.3c-0.5,0-1,0.1-1.4,0.3c-0.4,0.2-0.8,0.4-1.1,0.7c-0.3,0.3-0.6,0.7-0.7,1.1s-0.3,0.9-0.3,1.4
				s0.1,1,0.3,1.4s0.4,0.8,0.7,1.1c0.3,0.3,0.7,0.6,1.1,0.7C113.3,150.1,113.7,150.2,114.2,150.2z"/>
		</g>
		<g class="st4">
			<path class="st5" d="M126.4,151.3v-9h1.3v7.8h4.8v1.1H126.4z"/>
			<path class="st5" d="M134.6,151.3l4.1-9h1.3l4.1,9h-1.3L139,143h0.5l-3.6,8.2H134.6z M136.3,149l0.3-1h5l0.4,1H136.3z"/>
			<path class="st5" d="M151.2,151.4c-0.7,0-1.3-0.1-1.9-0.3s-1.1-0.5-1.5-1c-0.4-0.4-0.8-0.9-1-1.5c-0.2-0.6-0.4-1.2-0.4-1.8
				s0.1-1.3,0.4-1.8c0.2-0.6,0.6-1,1-1.5c0.4-0.4,0.9-0.7,1.5-1s1.2-0.3,1.9-0.3c0.7,0,1.4,0.1,1.9,0.3c0.6,0.2,1.1,0.6,1.5,1
				l-0.8,0.8c-0.4-0.4-0.8-0.6-1.2-0.8c-0.4-0.2-0.9-0.2-1.4-0.2c-0.5,0-1,0.1-1.4,0.3c-0.4,0.2-0.8,0.4-1.1,0.7
				c-0.3,0.3-0.6,0.7-0.7,1.1s-0.3,0.9-0.3,1.4c0,0.5,0.1,0.9,0.3,1.4c0.2,0.4,0.4,0.8,0.7,1.1c0.3,0.3,0.7,0.6,1.1,0.7
				c0.4,0.2,0.9,0.3,1.4,0.3c0.5,0,0.9-0.1,1.4-0.2c0.4-0.1,0.8-0.4,1.2-0.7l0.7,1c-0.4,0.4-1,0.7-1.6,0.9
				C152.5,151.3,151.9,151.4,151.2,151.4z M153.4,150v-3.3h1.2v3.5L153.4,150z"/>
			<path class="st5" d="M163.1,151.4c-0.7,0-1.3-0.1-1.9-0.3s-1.1-0.6-1.5-1c-0.4-0.4-0.8-0.9-1-1.5c-0.2-0.6-0.4-1.2-0.4-1.8
				s0.1-1.3,0.4-1.8c0.2-0.6,0.6-1,1-1.5c0.4-0.4,0.9-0.7,1.5-1c0.6-0.2,1.2-0.3,1.9-0.3c0.7,0,1.3,0.1,1.9,0.3s1.1,0.5,1.5,1
				c0.4,0.4,0.8,0.9,1,1.5c0.2,0.6,0.4,1.2,0.4,1.8s-0.1,1.3-0.4,1.8c-0.2,0.6-0.6,1-1,1.5c-0.4,0.4-0.9,0.7-1.5,1
				S163.8,151.4,163.1,151.4z M163.1,150.2c0.5,0,1-0.1,1.4-0.3c0.4-0.2,0.8-0.4,1.1-0.7c0.3-0.3,0.6-0.7,0.7-1.1s0.3-0.9,0.3-1.4
				s-0.1-1-0.3-1.4s-0.4-0.8-0.7-1.1c-0.3-0.3-0.7-0.6-1.1-0.7c-0.4-0.2-0.9-0.3-1.4-0.3c-0.5,0-1,0.1-1.4,0.3
				c-0.4,0.2-0.8,0.4-1.1,0.7c-0.3,0.3-0.6,0.7-0.7,1.1s-0.3,0.9-0.3,1.4s0.1,1,0.3,1.4s0.4,0.8,0.7,1.1c0.3,0.3,0.7,0.6,1.1,0.7
				C162.1,150.1,162.6,150.2,163.1,150.2z"/>
		</g>
		<g class="st4">
			<path class="st5" d="M175.1,151.4c-0.7,0-1.3-0.1-2-0.3s-1.1-0.5-1.5-0.8l0.5-1c0.3,0.3,0.8,0.5,1.3,0.7c0.5,0.2,1.1,0.3,1.6,0.3
				c0.5,0,0.9-0.1,1.3-0.2c0.3-0.1,0.6-0.3,0.7-0.5s0.2-0.4,0.2-0.7c0-0.3-0.1-0.6-0.3-0.7s-0.5-0.3-0.8-0.5
				c-0.3-0.1-0.7-0.2-1.1-0.3c-0.4-0.1-0.8-0.2-1.2-0.3s-0.7-0.3-1.1-0.4c-0.3-0.2-0.6-0.4-0.8-0.7s-0.3-0.7-0.3-1.2
				c0-0.5,0.1-0.9,0.4-1.3s0.6-0.7,1.1-0.9c0.5-0.2,1.2-0.4,1.9-0.4c0.5,0,1,0.1,1.5,0.2c0.5,0.1,1,0.3,1.3,0.6l-0.4,1
				c-0.4-0.3-0.8-0.4-1.2-0.6c-0.4-0.1-0.8-0.2-1.2-0.2c-0.5,0-0.9,0.1-1.2,0.2c-0.3,0.1-0.6,0.3-0.7,0.5c-0.1,0.2-0.2,0.5-0.2,0.7
				c0,0.3,0.1,0.6,0.3,0.8s0.5,0.3,0.8,0.4c0.3,0.1,0.7,0.2,1.1,0.3c0.4,0.1,0.8,0.2,1.2,0.3s0.7,0.3,1.1,0.4
				c0.3,0.2,0.6,0.4,0.8,0.7c0.2,0.3,0.3,0.7,0.3,1.2c0,0.5-0.1,0.9-0.4,1.3s-0.6,0.7-1.1,0.9S175.9,151.4,175.1,151.4z"/>
		</g>
	</g>
</g>
</svg>
