<svg id="Layer_1" data-name="Layer 1" xmlns="http://www.w3.org/2000/svg" xmlns:xlink="http://www.w3.org/1999/xlink" viewBox="0 0 1261.68 109.04"><defs><style>.cls-1{fill:none;}.cls-2{fill:#0e4595;}.cls-3{fill:#f2ae14;}.cls-4{fill:#ed342b;}.cls-4,.cls-5,.cls-6{fill-rule:evenodd;}.cls-5{fill:#fefefe;}.cls-6{fill:#03435f;}.cls-7{clip-path:url(#clip-path);}.cls-8{fill:#0ba4db;}.cls-9{fill:#ff5f00;}.cls-10{fill:#eb001b;}.cls-11{fill:#f79e1b;}</style><clipPath id="clip-path" transform="translate(-79 -351)"><rect class="cls-1" x="79" y="355.09" width="101.66" height="100"/></clipPath></defs><path class="cls-2" d="M746.48,447.57l13.21-77.5h21.13l-13.22,77.5Zm97.44-75.83A54.5,54.5,0,0,0,825,368.48c-20.88,0-35.58,10.51-35.71,25.58-.11,11.14,10.5,17.35,18.51,21.06,8.23,3.8,11,6.22,11,9.61,0,5.19-6.56,7.57-12.64,7.57-8.45,0-12.94-1.18-19.88-4.07L783.5,427l-3,17.35c4.94,2.16,14.06,4,23.53,4.13,22.21,0,36.63-10.39,36.79-26.48.08-8.81-5.55-15.52-17.74-21.05-7.38-3.59-11.9-6-11.86-9.61,0-3.22,3.83-6.67,12.1-6.67a38.88,38.88,0,0,1,15.81,3l1.9.89Zm54.36-1.67H882c-5.06,0-8.84,1.38-11.06,6.42l-31.38,71h22.19s3.62-9.55,4.44-11.65l27.06,0c.63,2.72,2.57,11.62,2.57,11.62h19.6l-17.1-77.46Zm-25.9,50c1.75-4.46,8.42-21.66,8.42-21.66-.12.2,1.73-4.49,2.8-7.4l1.43,6.68s4,18.5,4.89,22.38Zm-143.83-50-20.68,52.85-2.2-10.74c-3.85-12.38-15.85-25.8-29.26-32.51l18.91,67.78,22.35,0,33.26-77.36H728.55" transform="translate(-79 -351)"/><path class="cls-3" d="M691.61,360.46H649l-.34,2c33.13,8,55,27.4,64.15,50.69l-9.26-44.52c-1.6-6.13-6.23-8-12-8.18" transform="translate(-79 -351)"/><path class="cls-4" d="M1151.82,403.22a50,50,0,1,1-50-50,50,50,0,0,1,50,50" transform="translate(-79 -351)"/><path class="cls-5" d="M1101.82,424.64c-11.18-25.36-19.38-49-19.38-49h-17.15A589.06,589.06,0,0,0,1095.11,444h13.42a587,587,0,0,0,29.82-68.41h-17.14s-8.2,23.68-19.39,49" transform="translate(-79 -351)"/><path class="cls-6" d="M1317.15,400.61c-9.69,0-10.43,10.44-10.43,10.44h20.87s-.75-10.44-10.44-10.44m23.11,20.87h-33.54s.74,11.19,15.65,11.19a59.43,59.43,0,0,0,14.91-2.24l1.49,11.93a52.79,52.79,0,0,1-17.89,3c-14.91,0-28.33-7.46-28.33-28.33,0-16.4,10.44-26.84,25.35-26.84,22.36,0,23.85,22.37,22.36,31.31M1226.2,403.87l2.31-12.31s-17.83-5.41-32.31,4.62v49.23h15.38v-40c6.15-4.62,14.62-1.54,14.62-1.54m-64.13-3.26c-9.69,0-10.44,10.44-10.44,10.44h20.87s-.74-10.44-10.43-10.44m23.11,20.87h-33.55s.75,11.19,15.66,11.19a59.41,59.41,0,0,0,14.9-2.24l1.5,11.93a52.89,52.89,0,0,1-17.9,3c-14.9,0-28.32-7.46-28.32-28.33,0-16.4,10.43-26.84,25.34-26.84,22.37,0,23.86,22.37,22.37,31.31m78.56,5.11A242.9,242.9,0,0,1,1252,390.18h-15.62s7.81,30.15,21.09,55.14H1270c13.28-25,21.09-55.14,21.09-55.14h-15.62a242.37,242.37,0,0,1-11.72,36.4" transform="translate(-79 -351)"/><g class="cls-7"><path class="cls-8" d="M170.1,355.09H84.28A5.3,5.3,0,0,0,79,360.38v9.52a5.3,5.3,0,0,0,5.28,5.29h85.55a5.3,5.3,0,0,0,5.29-5.29v-9.52A4.93,4.93,0,0,0,170.1,355.09Zm0,53.17H84.28A5.3,5.3,0,0,0,79,413.55v9.53a5.3,5.3,0,0,0,5.28,5.29h85.55a5.3,5.3,0,0,0,5.29-5.29v-9.53a4.93,4.93,0,0,0-5-5.29ZM132.6,435H84.28A5.3,5.3,0,0,0,79,440.27v9.53a5.3,5.3,0,0,0,5.28,5.29H132.6a5.3,5.3,0,0,0,5.28-5.29v-9.53A5.3,5.3,0,0,0,132.6,435Zm42.78-53.17H84.28A5.3,5.3,0,0,0,79,387.1v9.52a5.3,5.3,0,0,0,5.28,5.29h91.1a5.3,5.3,0,0,0,5.28-5.29V387.1A5.3,5.3,0,0,0,175.38,381.81Z" transform="translate(-79 -351)"/></g><path d="M358.81,459.79v-7.24a4.27,4.27,0,0,0-4.58-4.59,5,5,0,0,0-4.22,2,4.32,4.32,0,0,0-4-2,4.24,4.24,0,0,0-3.59,1.69v-1.46h-2.35v11.59h2.35v-6.63a2.74,2.74,0,0,1,3-3c1.74,0,2.73,1.09,2.73,3v6.64h2.35v-6.64a2.74,2.74,0,0,1,3-3c1.73,0,2.72,1.09,2.72,3v6.64Zm38.65-11.47h-4.34v-3.5h-2.35v3.5H388.3v2h2.47v5.45c0,2.65,1,4.22,4,4.22a7,7,0,0,0,3.21-.84l-.74-2a4.24,4.24,0,0,1-2.23.6,1.71,1.71,0,0,1-1.86-1.93v-5.55h4.34v-1.94Zm22.05-.36a3.72,3.72,0,0,0-3.22,1.69v-1.46h-2.35v11.59h2.35v-6.51c0-1.93,1-3.14,2.6-3.14a7.2,7.2,0,0,1,1.61.24l.75-2.17a8.48,8.48,0,0,0-1.74-.24Zm-33.32,1.2a8.73,8.73,0,0,0-4.83-1.2c-3,0-4.84,1.33-4.84,3.62,0,1.93,1.37,3,4,3.38l1.24.12c1.36.24,2.23.73,2.23,1.33,0,.85-1,1.46-2.85,1.46a6.69,6.69,0,0,1-4-1.21l-1.23,1.81a9.14,9.14,0,0,0,5.08,1.46c3.47,0,5.33-1.57,5.33-3.74s-1.5-3-4.09-3.38l-1.24-.12c-1.12-.12-2.09-.49-2.09-1.21s1-1.46,2.35-1.46a9,9,0,0,1,3.72,1ZM422.11,454c0,3.5,2.36,6,6.2,6a6.25,6.25,0,0,0,4.21-1.33l-1.24-1.81a5.08,5.08,0,0,1-3.09,1.09,3.86,3.86,0,0,1,0-7.71,5.07,5.07,0,0,1,3.09,1.08l1.24-1.81a6.31,6.31,0,0,0-4.21-1.33,5.54,5.54,0,0,0-6.2,5.8Zm-16.6-6c-3.47,0-5.82,2.41-5.82,6a5.74,5.74,0,0,0,6.07,6,7.69,7.69,0,0,0,4.83-1.57l-1.24-1.69a5.93,5.93,0,0,1-3.47,1.21,3.45,3.45,0,0,1-3.59-3h8.8v-1c0-3.63-2.23-6-5.58-6Zm-.12,2.17a2.93,2.93,0,0,1,3.1,2.9h-6.44A3.32,3.32,0,0,1,405.39,450.13ZM373.3,454V448.2H371v1.46a4.58,4.58,0,0,0-3.84-1.69,6,6,0,0,0,0,12.07,4.6,4.6,0,0,0,3.84-1.69v1.46h2.35Zm-9.54,0a3.66,3.66,0,1,1,3.72,3.87c-2.35.12-3.72-1.69-3.72-3.87Zm91.56-6a3.72,3.72,0,0,0-3.22,1.69v-1.46h-2.36v11.59h2.36v-6.51c0-1.93,1-3.14,2.6-3.14a7.37,7.37,0,0,1,1.61.24l.74-2.17a8.48,8.48,0,0,0-1.73-.24Zm-9.17,6V448.2H443.8v1.46A4.59,4.59,0,0,0,440,448,6,6,0,0,0,440,460a4.6,4.6,0,0,0,3.84-1.69v1.46h2.35Zm-9.54,0a3.66,3.66,0,1,1,3.72,3.87C438,458,436.61,456.17,436.61,454Zm33.45,0V443.61h-2.35v6a4.58,4.58,0,0,0-3.84-1.69,6,6,0,0,0,0,12.07,4.6,4.6,0,0,0,3.84-1.69v1.46h2.35Zm-9.54,0a3.66,3.66,0,1,1,3.72,3.87c-2.35.12-3.72-1.69-3.72-3.87Z" transform="translate(-79 -351)"/><path class="cls-9" d="M383.46,360.3h43v68.34h-43Z" transform="translate(-79 -351)"/><path class="cls-10" d="M387.8,394.47a43.16,43.16,0,0,1,17-34.17c-19.36-14.84-47.4-11.57-62.62,7.3a42.73,42.73,0,0,0,7.49,61,45.53,45.53,0,0,0,55.13,0A43.17,43.17,0,0,1,387.8,394.47Z" transform="translate(-79 -351)"/><path class="cls-11" d="M477,394.47c0,24-19.92,43.44-44.52,43.45a45.29,45.29,0,0,1-27.57-9.28,42.83,42.83,0,0,0,7.34-61.19,44.75,44.75,0,0,0-7.34-7.15c19.35-14.82,47.36-11.55,62.56,7.3A42.7,42.7,0,0,1,477,394.47Z" transform="translate(-79 -351)"/></svg>