<svg xmlns="http://www.w3.org/2000/svg" viewBox="0 0 216 216"><defs><style>.cls-1{fill:#d8b982;fill-rule:evenodd;}.cls-2{font-size:8.32px;font-family:ArialMT, Arial;}.cls-2,.cls-7,.cls-8,.cls-9{fill:#231f20;}.cls-3,.cls-4,.cls-5,.cls-6{fill:none;stroke:#231f20;}.cls-3,.cls-5,.cls-6{stroke-miterlimit:2.61;}.cls-4{stroke-linecap:round;stroke-linejoin:round;stroke-width:2px;stroke-dasharray:2.4 4.8;}.cls-5{stroke-width:3.06px;}.cls-6{stroke-width:0.57px;}.cls-7{font-size:9.63px;}.cls-7,.cls-8{font-family:Montserrat-Regular, Montserrat;}.cls-8{font-size:5.96px;}.cls-9{font-size:13.56px;font-family:Montserrat-SemiBold, Montserrat;font-weight:600;}</style></defs><g id="Layer_2" data-name="Layer 2"><g id="Layer_1-2" data-name="Layer 1"><g id="CINNAMON"><path class="cls-1" d="M108,0A108,108,0,1,1,0,108,108,108,0,0,1,108,0"/><text class="cls-2" transform="translate(168.12 35.15)">®</text><line class="cls-3" x1="108.06" y1="27.39" x2="108.06" y2="29.98"/><line class="cls-3" x1="112.76" y1="27.54" x2="112.61" y2="30.12"/><line class="cls-3" x1="117.44" y1="27.96" x2="117.14" y2="30.54"/><line class="cls-3" x1="122.09" y1="28.66" x2="121.64" y2="31.21"/><line class="cls-3" x1="126.69" y1="29.63" x2="126.09" y2="32.15"/><line class="cls-3" x1="131.23" y1="30.86" x2="130.48" y2="33.34"/><line class="cls-3" x1="135.68" y1="32.36" x2="134.8" y2="34.79"/><line class="cls-3" x1="140.04" y1="34.11" x2="139.02" y2="36.48"/><line class="cls-3" x1="144.3" y1="36.11" x2="143.13" y2="38.42"/><line class="cls-3" x1="148.42" y1="38.36" x2="147.13" y2="40.6"/><line class="cls-3" x1="152.41" y1="40.84" x2="150.98" y2="43"/><line class="cls-3" x1="156.24" y1="43.55" x2="154.7" y2="45.63"/><line class="cls-3" x1="159.92" y1="46.49" x2="158.25" y2="48.47"/><line class="cls-3" x1="163.41" y1="49.63" x2="161.63" y2="51.51"/><line class="cls-3" x1="166.72" y1="52.97" x2="164.83" y2="54.74"/><line class="cls-3" x1="169.91" y1="56.31" x2="167.92" y2="57.97"/><line class="cls-3" x1="172.82" y1="60.01" x2="170.74" y2="61.55"/><line class="cls-3" x1="175.45" y1="63.96" x2="173.28" y2="65.38"/><line class="cls-3" x1="177.91" y1="67.98" x2="175.67" y2="69.27"/><line class="cls-3" x1="180.12" y1="72.12" x2="177.81" y2="73.28"/><line class="cls-3" x1="182.09" y1="76.39" x2="179.71" y2="77.41"/><line class="cls-3" x1="183.81" y1="80.77" x2="181.37" y2="81.65"/><line class="cls-3" x1="185.27" y1="85.24" x2="182.78" y2="85.97"/><line class="cls-3" x1="186.46" y1="89.78" x2="183.94" y2="90.37"/><line class="cls-3" x1="187.39" y1="94.39" x2="184.84" y2="94.83"/><line class="cls-3" x1="188.05" y1="99.05" x2="185.47" y2="99.34"/><line class="cls-3" x1="188.43" y1="103.73" x2="185.85" y2="103.87"/><line class="cls-3" x1="188.54" y1="108.43" x2="185.95" y2="108.42"/><line class="cls-3" x1="188.38" y1="113.13" x2="185.8" y2="112.96"/><line class="cls-3" x1="187.94" y1="117.81" x2="185.37" y2="117.49"/><line class="cls-3" x1="187.23" y1="122.45" x2="184.69" y2="121.99"/><line class="cls-3" x1="186.26" y1="127.05" x2="183.74" y2="126.44"/><line class="cls-3" x1="185.01" y1="131.58" x2="182.54" y2="130.83"/><line class="cls-3" x1="183.51" y1="136.04" x2="181.08" y2="135.14"/><line class="cls-3" x1="181.74" y1="140.39" x2="179.37" y2="139.36"/><line class="cls-3" x1="179.73" y1="144.64" x2="177.42" y2="143.46"/><line class="cls-3" x1="177.47" y1="148.76" x2="175.23" y2="147.46"/><line class="cls-3" x1="174.98" y1="152.76" x2="172.83" y2="151.33"/><line class="cls-3" x1="172.26" y1="156.6" x2="170.19" y2="155.04"/><line class="cls-3" x1="169.51" y1="160.17" x2="167.54" y2="158.5"/><line class="cls-3" x1="165.97" y1="163.84" x2="164.1" y2="162.05"/><line class="cls-3" x1="162.62" y1="167.13" x2="160.85" y2="165.24"/><line class="cls-3" x1="159.08" y1="170.22" x2="157.42" y2="168.23"/><line class="cls-3" x1="155.35" y1="173.08" x2="153.82" y2="171"/><line class="cls-3" x1="151.48" y1="175.74" x2="150.07" y2="173.57"/><line class="cls-3" x1="147.45" y1="178.17" x2="146.18" y2="175.92"/><line class="cls-3" x1="143.3" y1="180.36" x2="142.15" y2="178.04"/><line class="cls-3" x1="139.02" y1="182.33" x2="138.01" y2="179.95"/><line class="cls-3" x1="134.64" y1="184.02" x2="133.77" y2="181.59"/><line class="cls-3" x1="130.16" y1="185.46" x2="129.43" y2="182.97"/><line class="cls-3" x1="125.61" y1="186.63" x2="125.03" y2="184.1"/><line class="cls-3" x1="121.46" y1="187.49" x2="121.03" y2="184.94"/><line class="cls-3" x1="116.8" y1="188.14" x2="116.52" y2="185.56"/><line class="cls-3" x1="112.11" y1="188.51" x2="111.98" y2="185.92"/><line class="cls-3" x1="107.41" y1="188.61" x2="107.43" y2="186.02"/><line class="cls-3" x1="102.72" y1="188.43" x2="102.89" y2="185.85"/><line class="cls-3" x1="98.04" y1="187.99" x2="98.36" y2="185.42"/><line class="cls-3" x1="93.39" y1="187.27" x2="93.86" y2="184.72"/><line class="cls-3" x1="88.8" y1="186.28" x2="89.41" y2="183.76"/><line class="cls-3" x1="84.27" y1="185.02" x2="85.03" y2="182.55"/><line class="cls-3" x1="79.82" y1="183.5" x2="80.72" y2="181.08"/><line class="cls-3" x1="75.46" y1="181.73" x2="76.51" y2="179.36"/><line class="cls-3" x1="71.22" y1="179.7" x2="72.4" y2="177.4"/><line class="cls-3" x1="67.1" y1="177.43" x2="68.42" y2="175.2"/><line class="cls-3" x1="63.13" y1="174.93" x2="64.57" y2="172.78"/><line class="cls-3" x1="59.31" y1="172.17" x2="60.87" y2="170.11"/><line class="cls-3" x1="55.65" y1="169.22" x2="57.33" y2="167.25"/><line class="cls-3" x1="52.17" y1="166.06" x2="53.97" y2="164.19"/><line class="cls-3" x1="48.49" y1="162.53" x2="50.39" y2="160.77"/><line class="cls-3" x1="45.41" y1="158.98" x2="47.41" y2="157.33"/><line class="cls-3" x1="42.91" y1="155.44" x2="45.01" y2="153.92"/><line class="cls-3" x1="40.26" y1="151.56" x2="42.44" y2="150.16"/><line class="cls-3" x1="37.83" y1="147.54" x2="40.09" y2="146.27"/><line class="cls-3" x1="35.64" y1="143.39" x2="37.96" y2="142.26"/><line class="cls-3" x1="33.7" y1="139.11" x2="36.08" y2="138.11"/><line class="cls-3" x1="32.01" y1="134.72" x2="34.45" y2="133.87"/><line class="cls-3" x1="30.28" y1="130.02" x2="32.77" y2="129.31"/><line class="cls-3" x1="29.42" y1="125.69" x2="31.94" y2="125.12"/><line class="cls-3" x1="28.52" y1="121.08" x2="31.07" y2="120.66"/><line class="cls-3" x1="27.89" y1="116.42" x2="30.47" y2="116.15"/><line class="cls-3" x1="27.54" y1="111.73" x2="30.12" y2="111.61"/><line class="cls-3" x1="27.46" y1="107.03" x2="30.05" y2="107.06"/><line class="cls-3" x1="27.65" y1="102.33" x2="30.23" y2="102.51"/><line class="cls-3" x1="28.12" y1="97.65" x2="30.68" y2="97.99"/><line class="cls-3" x1="28.86" y1="93.01" x2="31.4" y2="93.49"/><line class="cls-3" x1="29.87" y1="88.42" x2="32.38" y2="89.05"/><line class="cls-3" x1="31.14" y1="83.89" x2="33.61" y2="84.67"/><line class="cls-3" x1="32.68" y1="79.45" x2="35.1" y2="80.37"/><line class="cls-3" x1="34.47" y1="75.11" x2="36.83" y2="76.16"/><line class="cls-3" x1="36.45" y1="70.77" x2="38.75" y2="71.96"/><line class="cls-3" x1="38.8" y1="66.76" x2="41.02" y2="68.09"/><line class="cls-3" x1="41.31" y1="62.8" x2="43.45" y2="64.25"/><line class="cls-3" x1="44.06" y1="58.99" x2="46.11" y2="60.56"/><line class="cls-3" x1="47.02" y1="55.34" x2="48.98" y2="57.03"/><line class="cls-3" x1="50.2" y1="51.87" x2="52.06" y2="53.67"/><line class="cls-3" x1="53.57" y1="48.59" x2="55.32" y2="50.5"/><line class="cls-3" x1="57.13" y1="45.52" x2="58.76" y2="47.52"/><line class="cls-3" x1="60.86" y1="42.65" x2="62.37" y2="44.75"/><line class="cls-3" x1="64.75" y1="40.01" x2="66.14" y2="42.2"/><line class="cls-3" x1="68.78" y1="37.6" x2="70.04" y2="39.86"/><line class="cls-3" x1="72.96" y1="35.43" x2="74.08" y2="37.76"/><line class="cls-3" x1="77.25" y1="33.51" x2="78.23" y2="35.9"/><line class="cls-3" x1="81.64" y1="31.84" x2="82.49" y2="34.29"/><line class="cls-3" x1="86.13" y1="30.43" x2="86.83" y2="32.92"/><line class="cls-3" x1="90.69" y1="29.28" x2="91.24" y2="31.81"/><line class="cls-3" x1="95.3" y1="28.39" x2="95.71" y2="30.94"/><line class="cls-3" x1="99.97" y1="27.79" x2="100.23" y2="30.36"/><line class="cls-3" x1="104.66" y1="27.46" x2="104.77" y2="30.04"/><circle class="cls-4" cx="108" cy="108" r="84.7" transform="translate(-1.25 1.26) rotate(-0.67)"/><circle class="cls-5" cx="108" cy="108" r="90.56" transform="translate(-44.73 108) rotate(-45)"/><circle class="cls-6" cx="108" cy="108" r="74.52" transform="translate(-44.73 108) rotate(-45)"/><text class="cls-7" transform="translate(98.37 71.72)">THE</text><text class="cls-7" transform="translate(67.02 81.94)">C</text><text class="cls-7" transform="translate(73.8 81.94)">ONSERV</text><text class="cls-7" transform="translate(115.42 81.94)">A</text><text class="cls-7" transform="translate(121.99 81.94)">T</text><text class="cls-7" transform="translate(127.42 81.94)">OR</text><text class="cls-7" transform="translate(142.37 81.94)">Y</text><text class="cls-8" transform="translate(86.78 93.12)">A</text><text class="cls-8" transform="translate(90.85 93.12)">T IRO LA</text><text class="cls-8" transform="translate(116.22 93.12)">GOS</text><text class="cls-9" transform="translate(67.45 132.83)">CINNAMON</text><text class="cls-9" transform="translate(69.48 145.82)">CHIN-</text><text class="cls-9" transform="translate(110.91 145.82)">CHIN</text></g></g></g></svg>