<svg xmlns="http://www.w3.org/2000/svg" viewBox="0 0 216 216"><defs><style>.cls-1{fill:#d8b982;fill-rule:evenodd;}.cls-2{font-size:8.32px;font-family:ArialMT, Arial;}.cls-2,.cls-7,.cls-8,.cls-9{fill:#231f20;}.cls-3,.cls-4,.cls-5,.cls-6{fill:none;stroke:#231f20;}.cls-3,.cls-5,.cls-6{stroke-miterlimit:2.61;}.cls-4{stroke-linecap:round;stroke-linejoin:round;stroke-width:2px;stroke-dasharray:2.4 4.8;}.cls-5{stroke-width:3.06px;}.cls-6{stroke-width:0.57px;}.cls-7{font-size:9.63px;}.cls-7,.cls-8{font-family:Montserrat-Regular, Montserrat;}.cls-8{font-size:5.96px;}.cls-9{font-size:13.56px;font-family:Montserrat-SemiBold, Montserrat;font-weight:600;}</style></defs><g id="Layer_2" data-name="Layer 2"><g id="Layer_1-2" data-name="Layer 1"><g id="HIBISCUS_TEA" data-name="HIBISCUS TEA"><path class="cls-1" d="M108,0A108,108,0,1,1,0,108,108,108,0,0,1,108,0"/><text class="cls-2" transform="translate(168.12 35.15)">®</text><path class="cls-3" d="M112.76,27.54l-.15,2.58M117.44,28l-.3,2.57m5-1.88-.45,2.55m5-1.58-.6,2.52m5.14-1.29-.75,2.48m5.2-1-.88,2.43m5.24-.68-1,2.37m5.28-.37-1.17,2.31m5.29-.06-1.29,2.24m5.28.24L151,43m5.26.55-1.54,2.08m5.22.86-1.67,2m5.16,1.16-1.78,1.88M166.72,53l-1.89,1.77m5.08,1.57-2,1.66m4.9,2-2.08,1.54M175.45,64l-2.17,1.42m4.63,2.6-2.24,1.29m4.46,2.85-2.32,1.16m4.28,3.11-2.38,1m4.1,3.36-2.44.88m3.9,3.59-2.48.73m3.67,3.81-2.52.59m3.45,4-2.55.44m3.21,4.22-2.57.29m3,4.39-2.58.14m2.69,4.56H186m2.42,4.71L185.8,113m2.14,4.84-2.57-.31m1.87,5-2.55-.46m1.57,5.06-2.52-.61m1.27,5.14-2.47-.75m1,5.2-2.43-.89m.66,5.25-2.37-1m.36,5.28-2.31-1.17m.05,5.29-2.24-1.3m-.24,5.31-2.16-1.44m-.57,5.27L170.19,155m-.68,5.13-2-1.67M166,163.84l-1.87-1.79m-1.48,5.08-1.77-1.89m-1.77,5-1.65-2m-2.08,4.85L153.82,171m-2.34,4.74-1.41-2.17m-2.61,4.6-1.28-2.25m-2.88,4.44L142.15,178M139,182.33,138,180M134.64,184l-.87-2.44m-3.61,3.87-.73-2.49m-3.82,3.66-.58-2.52m-3.57,3.38-.43-2.55m-4.23,3.2-.28-2.57m-4.4,2.94-.14-2.58m-4.56,2.68,0-2.59m-4.72,2.42.17-2.59M98,188l.32-2.57m-5,1.85.47-2.55m-5.06,1.56.61-2.52M84.27,185l.76-2.47m-5.21.95.9-2.42m-5.26.65,1.05-2.37m-5.29.34,1.18-2.3m-5.3,0,1.32-2.23m-5.29-.27,1.44-2.15m-5.26-.61,1.56-2.06m-5.22-.89,1.68-2m-5.16-1.19,1.8-1.87m-5.48-1.66,1.9-1.76m-5-1.79,2-1.65m-4.49-1.89L45,153.92m-4.75-2.36,2.18-1.4m-4.61-2.62,2.26-1.27m-4.45-2.88L38,142.26m-4.26-3.15,2.39-1M32,134.72l2.44-.85M30.28,130l2.49-.71m-3.35-3.62,2.52-.57m-3.42-4,2.55-.42m-3.18-4.24,2.58-.27m-2.93-4.42,2.58-.12M27.46,107l2.59,0m-2.4-4.73,2.58.18m-2.11-4.86,2.57.34m-1.83-5,2.54.48m-1.53-5.07,2.51.63M31.14,83.9l2.47.77m-.93-5.22,2.42.92m-.63-5.26,2.36,1m-.38-5.39L38.75,72m0-5.2L41,68.09m.29-5.29,2.14,1.45M44.06,59l2,1.57M47,55.34,49,57m1.22-5.16,1.86,1.8m1.51-5.08,1.75,1.91m1.81-5,1.63,2m2.1-4.87,1.51,2.1M64.75,40l1.39,2.19m2.64-4.6L70,39.87M73,35.43l1.13,2.33m3.17-4.25,1,2.39m3.4-4.06.85,2.45m3.64-3.86.7,2.49m3.86-3.64.55,2.53m4.06-3.42.41,2.55M100,27.78l.26,2.58m4.43-2.9.11,2.58m3.29-2.65V30"/><circle class="cls-4" cx="108" cy="108" r="84.7" transform="translate(-33.5 165.51) rotate(-67.12)"/><circle class="cls-5" cx="108" cy="108" r="90.56" transform="translate(-44.74 108) rotate(-45)"/><circle class="cls-6" cx="108" cy="108" r="74.52" transform="translate(-34.13 52.08) rotate(-23.52)"/><text class="cls-7" transform="translate(98.37 71.72)">THE</text><text class="cls-7" transform="translate(67.02 81.94)">C</text><text class="cls-7" transform="translate(73.8 81.94)">ONSERV</text><text class="cls-7" transform="translate(115.42 81.94)">A</text><text class="cls-7" transform="translate(121.99 81.94)">T</text><text class="cls-7" transform="translate(127.42 81.94)">OR</text><text class="cls-7" transform="translate(142.37 81.94)">Y</text><text class="cls-8" transform="translate(86.78 93.12)">A</text><text class="cls-8" transform="translate(90.84 93.12)">T IRO LA</text><text class="cls-8" transform="translate(116.22 93.12)">GOS</text><text class="cls-9" transform="translate(57.98 124.83)">HIBISCUS TEA</text><text class="cls-9" transform="translate(66.31 146.02)">CHRIS</text><text class="cls-9" transform="translate(109.78 146.02)">TMAS</text><text class="cls-9" transform="translate(73.61 159.4)">FLA</text><text class="cls-9" transform="translate(100.03 159.4)">V</text><text class="cls-9" transform="translate(109.62 159.4)">OUR</text><text class="cls-8" transform="translate(99.93 132.77)">W</text><text class="cls-8" transform="translate(106.46 132.77)">ITH</text></g></g></g></svg>