<?xml version="1.0" encoding="utf-8"?>
<!-- Generator: Adobe Illustrator 25.2.0, SVG Export Plug-In . SVG Version: 6.00 Build 0)  -->
<svg version="1.1" id="Layer_1" xmlns="http://www.w3.org/2000/svg" xmlns:xlink="http://www.w3.org/1999/xlink" x="0px" y="0px"
	 viewBox="0 0 216 216" style="enable-background:new 0 0 216 216;" xml:space="preserve">
<style type="text/css">
	.st0{fill-rule:evenodd;clip-rule:evenodd;fill:#D8B982;}
	.st1{fill:#231F20;}
	.st2{font-family:'ArialMT';}
	.st3{font-size:8.32px;}
	.st4{fill:none;stroke:#231F20;stroke-miterlimit:2.61;}
	.st5{fill:none;stroke:#231F20;stroke-width:2;stroke-linecap:round;stroke-linejoin:round;stroke-dasharray:2.4,4.8;}
	.st6{fill:none;stroke:#231F20;stroke-width:3.06;stroke-miterlimit:2.61;}
	.st7{fill:none;stroke:#231F20;stroke-width:0.57;stroke-miterlimit:2.61;}
	.st8{font-family:'Montserrat-Regular';}
	.st9{font-size:9.63px;}
	.st10{font-size:5.96px;}
	.st11{font-family:'Montserrat-SemiBold';}
	.st12{font-size:13.56px;}
</style>
<g id="Layer_2_1_">
	<g id="Layer_1-2">
		<g id="SPICED_HONEY">
			<path class="st0" d="M108,0c59.6,0,108,48.4,108,108s-48.4,108-108,108S0,167.6,0,108S48.4,0,108,0"/>
			<text transform="matrix(1 0 0 1 168.12 35.15)" class="st1 st2 st3">®</text>
			<path class="st4" d="M112.8,27.5l-0.2,2.6 M117.4,28l-0.3,2.6 M122.1,28.7l-0.4,2.5 M126.7,29.7l-0.6,2.5 M131.2,30.9l-0.8,2.5
				 M135.7,32.4l-0.9,2.4 M140,34.1l-1,2.4 M144.3,36.1l-1.2,2.3 M148.4,38.4l-1.3,2.2 M152.4,40.9L151,43 M156.3,43.5l-1.6,2.1
				 M159.9,46.5l-1.7,2 M163.4,49.6l-1.8,1.9 M166.7,53l-1.9,1.8 M169.9,56.3l-2,1.7 M172.8,60l-2.1,1.5 M175.4,64l-2.2,1.4
				 M177.9,68l-2.2,1.3 M180.1,72.2l-2.3,1.2 M182.1,76.4l-2.4,1 M183.8,80.8l-2.4,0.9 M185.3,85.3l-2.5,0.7 M186.5,89.8l-2.5,0.6
				 M187.4,94.4l-2.6,0.4 M188.1,99l-2.6,0.3 M188.5,103.7l-2.6,0.1 M188.6,108.4H186 M188.4,113.1l-2.6-0.1 M187.9,117.8l-2.6-0.3
				 M187.2,122.5l-2.5-0.5 M186.3,127.1l-2.5-0.6 M185,131.6l-2.5-0.8 M183.5,136.1l-2.4-0.9 M181.8,140.5l-2.4-1 M179.8,144.7
				l-2.3-1.2 M177.5,148.9l-2.2-1.3 M175,152.9l-2.1-1.4 M172.3,156.7l-2.1-1.7 M169.5,160.1l-2-1.7 M166,163.8l-1.9-1.8
				 M162.7,167.1l-1.8-1.9 M159.1,170.2l-1.6-2 M155.4,173.1l-1.6-2.1 M151.5,175.7l-1.4-2.2 M147.5,178.2l-1.3-2.2 M143.3,180.4
				l-1.2-2.4 M139,182.3l-1-2.3 M134.6,184l-0.9-2.4 M130.2,185.4l-0.7-2.5 M125.6,186.6l-0.6-2.5 M121.5,187.5l-0.4-2.6
				 M116.8,188.1l-0.3-2.6 M112.1,188.5l-0.1-2.6 M107.4,188.6V186 M102.7,188.4l0.2-2.6 M98,188l0.3-2.6 M93.3,187.3l0.5-2.6
				 M88.7,186.3l0.6-2.5 M84.3,185l0.8-2.5 M79.8,183.5l0.9-2.4 M75.5,181.7l1.1-2.4 M71.2,179.7l1.2-2.3 M67.1,177.4l1.3-2.2
				 M63.1,174.9l1.4-2.1 M59.3,172.1l1.6-2.1 M55.6,169.2l1.7-2 M52.2,166l1.8-1.9 M48.5,162.4l1.9-1.8 M45.4,158.9l2-1.6
				 M42.9,155.4l2.1-1.5 M40.2,151.5l2.2-1.4 M37.8,147.5l2.3-1.3 M35.6,143.3l2.4-1.1 M33.7,139.1l2.4-1 M32,134.7l2.4-0.9
				 M30.3,130l2.5-0.7 M29.4,125.7l2.5-0.6 M28.5,121.1l2.5-0.4 M27.9,116.4l2.6-0.3 M27.5,111.8l2.6-0.1 M27.5,107H30 M27.6,102.3
				l2.6,0.2 M28.1,97.6l2.6,0.3 M28.9,92.9l2.5,0.5 M29.9,88.3l2.5,0.6 M31.1,83.8l2.5,0.8 M32.7,79.4l2.4,0.9 M34.5,75l2.4,1
				 M36.4,70.6l2.3,1.4 M38.8,66.8l2.2,1.3 M41.3,62.8l2.1,1.4 M44.1,59l2,1.6 M47,55.3l2,1.7 M50.2,51.8l1.9,1.8 M53.6,48.6
				l1.8,1.9 M57.2,45.5l1.6,2 M60.9,42.6l1.5,2.1 M64.8,40l1.4,2.2 M68.8,37.6l1.2,2.3 M73,35.4l1.1,2.3 M77.3,33.5l1,2.4
				 M81.7,31.8l0.8,2.4 M86.2,30.4l0.7,2.5 M90.8,29.3l0.6,2.5 M95.4,28.4l0.4,2.5 M100,27.8l0.3,2.6 M104.7,27.5l0.1,2.6
				 M108.1,27.4V30"/>
			<circle class="st5" cx="108" cy="108" r="84.7"/>
			<circle class="st6" cx="108" cy="108" r="90.6"/>
			<circle class="st7" cx="108" cy="108" r="74.5"/>
			<text transform="matrix(1 0 0 1 98.37 71.72)" class="st1 st8 st9">THE</text>
			<text transform="matrix(1 0 0 1 67.02 81.94)" class="st1 st8 st9">C</text>
			<text transform="matrix(1 0 0 1 73.8 81.94)" class="st1 st8 st9">ONSERV</text>
			<text transform="matrix(1 0 0 1 115.42 81.94)" class="st1 st8 st9">A</text>
			<text transform="matrix(1 0 0 1 121.99 81.94)" class="st1 st8 st9">T</text>
			<text transform="matrix(1 0 0 1 127.42 81.94)" class="st1 st8 st9">OR</text>
			<text transform="matrix(1 0 0 1 142.37 81.94)" class="st1 st8 st9">Y</text>
			<text transform="matrix(1 0 0 1 86.78 93.12)" class="st1 st8 st10">A</text>
			<text transform="matrix(1 0 0 1 90.84 93.12)" class="st1 st8 st10">T IRO LA</text>
			<text transform="matrix(1 0 0 1 116.22 93.12)" class="st1 st8 st10">GOS</text>
			<text transform="matrix(1 0 0 1 81.71 132.32)" class="st1 st11 st12">SP</text>
			<text transform="matrix(1 0 0 1 99.95 132.32)" class="st1 st11 st12">ICED</text>
			<text transform="matrix(1 0 0 1 81.64 145.31)" class="st1 st11 st12">HONE</text>
			<text transform="matrix(1 0 0 1 124 145.31)" class="st1 st11 st12">Y</text>
		</g>
	</g>
</g>
</svg>
